<svg xmlns="http://www.w3.org/2000/svg" viewBox="0 0 30 30">
    <path d="M15.25 21.472a2.118 2.118 0 0 1-4.164.127 34.54 34.54 0 0 0 4.165-.127zm-.846-15.468l.121.007a1.138 1.138 0 0 1 .908 1.601l-.053.104a1.144 1.144 0 0 1-.013.02c2.14.253 5.212 2.192 6.476 8.501l-.008-.07c.107 1.019.955 1.085 1.174 1.089h.047c.18.004.402.113.438.454l.105.991s-2.916 1.275-7.797 1.787c-4.428.466-7.404-.018-7.92-.112l-.079-.015-.104-.991a.47.47 0 0 1 .27-.504l.066-.032c.867-.115.967-1.318.967-1.318-.114-6.296 2.528-8.87 4.581-9.585a1.136 1.136 0 0 1 .697-1.92l.124-.007z">
    </path>
</svg>